<svg width="41" height="56" viewBox="0 0 41 56" fill="none" xmlns="http://www.w3.org/2000/svg">
<path d="M0 33.9098C0.346153 26.8852 3.56734 20.683 10.3827 16.6712C19.8722 11.0851 29.4471 5.64409 38.9789 0.129753C39.3732 -0.0982125 39.4881 -0.0326941 39.6486 0.381198C41.9451 6.30324 39.7376 12.5618 35.61 16.2357C35.251 16.5552 34.8453 16.81 34.4291 17.0503C29.4681 19.9122 24.5082 22.7758 19.5499 25.642C18.8412 26.0516 18.4863 26.7302 18.5969 27.4229C18.7178 28.1804 19.3298 28.8079 20.084 28.945C20.5707 29.0334 20.984 28.8347 21.3866 28.6023C26.2511 25.795 31.1154 22.9873 35.9794 20.1797C36.442 19.9125 36.9122 19.6577 37.3634 19.3727C37.6237 19.208 37.7356 19.2657 37.8378 19.5413C38.5494 21.4645 38.9298 23.4432 38.7882 25.4971C38.4776 29.9987 36.5145 33.6311 32.8255 36.2166C31.0526 37.4594 29.0916 38.4341 27.2143 39.5274C26.3708 40.0186 25.5476 40.5527 24.6725 40.9799C22.686 41.9499 21.7228 43.6556 21.2835 45.6909C20.3748 49.9007 23.7093 53.9312 28.0184 53.8942C28.2564 53.8923 28.494 53.8514 28.7315 53.8252C28.9431 53.8017 29.1087 53.8858 29.1636 54.0835C29.2155 54.2699 29.0859 54.4015 28.9193 54.4639C28.3692 54.6701 27.8226 54.8914 27.2611 55.0616C16.2352 58.405 4.28884 52.026 0.936771 41.0086C0.310459 38.9493 0.0491785 36.8353 0 33.9098Z" fill="url(#paint0_linear_54795_36070)"/>
<defs>
<linearGradient id="paint0_linear_54795_36070" x1="20.2876" y1="0" x2="20.2876" y2="55.9517" gradientUnits="userSpaceOnUse">
<stop stop-color="#C4CDFF" stop-opacity="0.9516"/>
<stop offset="0.505" stop-color="#235AC7" stop-opacity="0.89"/>
<stop offset="1" stop-color="#02151D"/>
</linearGradient>
</defs>
</svg>
